<?xml version="1.0" standalone="no"?>
<!DOCTYPE svg PUBLIC "-//W3C//DTD SVG 1.1//EN" "http://www.w3.org/Graphics/SVG/1.1/DTD/svg11.dtd" >
<svg xmlns="http://www.w3.org/2000/svg" xmlns:xlink="http://www.w3.org/1999/xlink" version="1.1">
<metadata>
Created by FontForge 20170910 at Tue Sep 12 04:52:26 2017
 By Jimmy Wärting
</metadata>
<defs>
<font id="NotoSansCJKkr-Light-Alphabetic" horiz-adv-x="1000" vert-adv-y="1000" >
  <font-face 
    font-family="NotoSansCJKkr-Light-Alphabetic"
    font-weight="200"
    font-stretch="normal"
    units-per-em="1000"
    panose-1="2 0 3 3 0 0 0 0 0 0"
    ascent="800"
    descent="-200"
    bbox="33 -253 959 807"
    underline-thickness="50"
    underline-position="-150"
    unicode-range="U+FF21-FF5A"
  />
<missing-glyph horiz-adv-x="364" 
d="M33 0v666h265v-666h-265zM66 33h199v600h-199v-600z" />
    <glyph glyph-name=".notdef" horiz-adv-x="364" 
d="M33 0v666h265v-666h-265zM66 33h199v600h-199v-600z" />
    <glyph glyph-name=".null" horiz-adv-x="0" vert-adv-y="0" 
 />
    <glyph glyph-name="nonmarkingreturn" horiz-adv-x="333" 
 />
    <glyph glyph-name="Identity.59024" unicode="&#xff21;" 
d="M753 0l-96 244h-331l-96 -244h-62l290 730h68l291 -730h-64zM342 291h300l-53 138q-91 238 -95 248h-4q-7 -19 -94 -248z" />
    <glyph glyph-name="Identity.59025" unicode="&#xff22;" 
d="M251 0v730h236q136 0 203.5 -43t67.5 -135q0 -123 -123 -159v-5q82 -12 127 -58t45 -118q0 -111 -72 -161.5t-228 -50.5h-256zM310 411h153q124 0 179 32t55 102q0 73 -52.5 104.5t-170.5 31.5h-164v-270zM310 50h181q136 0 196 36t60 127q0 78 -61.5 113.5t-198.5 35.5
h-177v-312z" />
    <glyph glyph-name="Identity.59026" unicode="&#xff23;" 
d="M814 91q-105 -103 -253 -103q-157 0 -255 103t-98 274q0 170 99 273.5t261 103.5q133 0 222 -87l-36 -39q-75 72 -185 72q-136 0 -217.5 -88t-81.5 -234t80.5 -235t213.5 -89q121 0 214 87z" />
    <glyph glyph-name="Identity.59027" unicode="&#xff24;" 
d="M234 0v730h193q192 0 289 -96t97 -266q0 -172 -97 -270t-287 -98h-195zM292 52h129q164 0 247 84.5t83 231.5t-82.5 228.5t-247.5 81.5h-129v-626z" />
    <glyph glyph-name="Identity.59028" unicode="&#xff25;" 
d="M290 0v730h465v-53h-406v-264h335v-53h-335v-307h419v-53h-478z" />
    <glyph glyph-name="Identity.59029" unicode="&#xff26;" 
d="M311 0v730h465v-53h-405v-280h337v-53h-337v-344h-60z" />
    <glyph glyph-name="Identity.59030" unicode="&#xff27;" 
d="M798 70q-91 -83 -249 -83q-164 0 -264.5 103t-100.5 275t103 274.5t270 102.5q137 0 232 -89l-36 -39q-80 74 -195 74q-141 0 -226.5 -87.5t-85.5 -234.5q0 -148 83 -236.5t225 -88.5q55 0 106 14t80 38v219h-202v51h260v-293z" />
    <glyph glyph-name="Identity.59031" unicode="&#xff28;" 
d="M215 0v730h59v-317h452v317h60v-730h-60v361h-452v-361h-59z" />
    <glyph glyph-name="Identity.59032" unicode="&#xff29;" 
d="M262 0v52h208v625h-208v53h476v-53h-208v-625h208v-52h-476z" />
    <glyph glyph-name="Identity.59033" unicode="&#xff2a;" 
d="M681 202q0 -97 -52 -155.5t-160 -58.5q-139 0 -212 111l46 31q60 -89 163 -89q154 0 154 167v522h61v-528z" />
    <glyph glyph-name="Identity.59034" unicode="&#xff2b;" 
d="M258 0v730h59v-402h4l407 402h72l-270 -273l308 -457h-69l-279 416l-173 -171v-245h-59z" />
    <glyph glyph-name="Identity.59035" unicode="&#xff2c;" 
d="M317 0v730h60v-678h392v-52h-452z" />
    <glyph glyph-name="Identity.59036" unicode="&#xff2d;" 
d="M169 0v730h81l182 -420q44 -106 67 -160h4q13 30 34.5 84t30.5 76l182 420h81v-730h-58v462q0 39 8 202h-5l-70 -164l-183 -422h-48l-184 422l-68 164h-5q6 -91 6 -202v-462h-55z" />
    <glyph glyph-name="Identity.59037" unicode="&#xff2e;" 
d="M218 0v730h61l351 -501l99 -148h5q-7 99 -7 217v432h57v-730h-63l-350 501l-99 148h-4q6 -142 6 -212v-437h-56z" />
    <glyph glyph-name="Identity.59038" unicode="&#xff2f;" 
d="M848 367q0 -172 -96 -275.5t-252 -103.5q-155 0 -251.5 103.5t-96.5 275.5q0 171 96.5 273t251.5 102t251.5 -102t96.5 -273zM214 367q0 -148 79 -237t207 -89q129 0 207.5 89t78.5 237q0 147 -78.5 234t-207.5 87t-207.5 -87t-78.5 -234z" />
    <glyph glyph-name="Identity.59039" unicode="&#xff30;" 
d="M267 0v730h215q151 0 228.5 -48.5t77.5 -157.5q0 -107 -78.5 -161.5t-222.5 -54.5h-161v-308h-59zM326 359h146q129 0 191.5 39t62.5 126t-62.5 121t-196.5 34h-141v-320z" />
    <glyph glyph-name="Identity.59040" unicode="&#xff31;" 
d="M845 -108l12 -50q-42 -17 -108 -17q-105 0 -176.5 44.5t-105.5 119.5q-141 12 -228 114t-87 264q0 171 96.5 273t251.5 102q154 0 250.5 -102t96.5 -273q0 -161 -87 -263t-227 -114q59 -111 224 -111q49 0 88 13zM500 38q128 0 207 90t79 239q0 147 -78.5 234t-207.5 87
t-207.5 -87t-78.5 -234q0 -149 78.5 -239t207.5 -90z" />
    <glyph glyph-name="Identity.59041" unicode="&#xff32;" 
d="M808 0h-70l-227 329h-184v-329h-58v730h241q280 0 280 -195q0 -86 -57 -136.5t-158 -62.5zM327 679v-300h168q232 0 232 156q0 77 -58.5 110.5t-173.5 33.5h-168z" />
    <glyph glyph-name="Identity.59042" unicode="&#xff33;" 
d="M781 185q0 -87 -74 -142.5t-197 -55.5q-174 0 -288 112l38 42q48 -46 114 -73t137 -27q94 0 152 38t58 101q0 59 -39.5 90.5t-116.5 59.5l-126 47q-33 12 -59 25t-54 34t-43.5 51t-15.5 67q0 85 69.5 136.5t178.5 51.5q142 0 238 -89l-36 -40q-87 75 -203 75
q-82 0 -134 -34t-52 -90q0 -29 13.5 -52.5t39.5 -40t46 -25.5t51 -20l125 -46q84 -30 131 -74.5t47 -120.5z" />
    <glyph glyph-name="Identity.59043" unicode="&#xff34;" 
d="M469 0v678h-272v52h605v-52h-272v-678h-61z" />
    <glyph glyph-name="Identity.59044" unicode="&#xff35;" 
d="M728 730h60v-444q0 -83 -24 -143t-66 -93t-91 -48t-108 -15q-58 0 -106.5 15t-90 48t-64.5 93t-23 143v444h59v-440q0 -132 63 -190.5t162 -58.5q101 0 165 58.5t64 190.5v440z" />
    <glyph glyph-name="Identity.59045" unicode="&#xff36;" 
d="M468 0l-279 730h63l157 -420q11 -28 40.5 -111t49.5 -133h5q19 48 47.5 126.5t43.5 117.5l155 420h61l-277 -730h-66z" />
    <glyph glyph-name="Identity.59046" unicode="&#xff37;" 
d="M233 0l-194 730h63l107 -422q40 -158 60 -238h4q39 142 67 238l131 422h59l133 -422q13 -44 36 -126t32 -112h5q9 35 55 238l109 422h59l-190 -730h-69l-152 487q-18 65 -46 165h-4q-31 -110 -47 -165l-150 -487h-68z" />
    <glyph glyph-name="Identity.59047" unicode="&#xff38;" 
d="M213 0l252 377l-236 353h67l137 -209q40 -60 69 -101h4q36 59 64 101l134 209h65l-235 -355l254 -375h-70l-142 218q-12 19 -38.5 58t-39.5 58h-4q-29 -44 -75 -116l-142 -218h-64z" />
    <glyph glyph-name="Identity.59048" unicode="&#xff39;" 
d="M470 0v293l-256 437h64l129 -223q4 -6 37.5 -66.5t53.5 -92.5h4q70 114 93 159l129 223h61l-256 -437v-293h-59z" />
    <glyph glyph-name="Identity.59049" unicode="&#xff3a;" 
d="M221 0v36l477 642h-441v52h519v-35l-478 -643h490v-52h-567z" />
    <glyph glyph-name="Identity.59056" unicode="&#xff41;" 
d="M267 134q0 89 94.5 135.5t309.5 65.5q-2 161 -155 161q-99 0 -198 -70l-26 42q42 30 105 54t127 24q103 0 154 -57t51 -151v-338h-49l-5 78h-3q-114 -90 -221 -90q-77 0 -130.5 38t-53.5 108zM325 138q0 -52 40 -76.5t99 -24.5q98 0 207 92v163q-190 -16 -268 -53
t-78 -101z" />
    <glyph glyph-name="Identity.59057" unicode="&#xff42;" 
d="M779 276q0 -131 -77.5 -209.5t-191.5 -78.5q-97 0 -187 66h-4l-7 -54h-47v795h59v-229l-3 -103q113 82 213 82q121 0 183 -73.5t62 -195.5zM324 104q88 -66 181 -66q92 0 152.5 66t60.5 171q0 98 -47.5 159t-148.5 61q-88 0 -198 -85v-306z" />
    <glyph glyph-name="Identity.59058" unicode="&#xff43;" 
d="M262 266q0 129 83.5 204t208.5 75q112 0 193 -79l-31 -39q-75 68 -160 68q-103 0 -168 -64t-65 -165q0 -102 64 -165t168 -63q96 0 177 74l29 -40q-90 -84 -209 -84q-128 0 -209 74.5t-81 203.5z" />
    <glyph glyph-name="Identity.59059" unicode="&#xff44;" 
d="M677 67q-89 -80 -204 -80q-114 0 -183 74.5t-69 204.5q0 126 78.5 203.5t191.5 77.5q54 0 96.5 -15.5t92.5 -49.5l-4 97v216h59v-795h-48l-7 67h-3zM282 266q0 -102 56 -165t147 -63q95 0 191 85v307q-87 66 -179 66q-90 0 -152.5 -66t-62.5 -164z" />
    <glyph glyph-name="Identity.59060" unicode="&#xff45;" 
d="M241 266q0 124 83.5 201.5t194.5 77.5q115 0 182 -66t67 -180q0 -23 -3 -43h-463q2 -98 67 -158.5t170 -60.5t185 54l22 -42q-92 -61 -213 -61q-124 0 -208 75.5t-84 202.5zM301 301h412q0 94 -52 145t-141 51q-82 0 -144.5 -53.5t-74.5 -142.5z" />
    <glyph glyph-name="Identity.59061" unicode="&#xff46;" 
d="M804 775l-17 -44q-59 27 -129 27q-151 0 -151 -162v-63h242v-49h-242v-484h-56v484h-159v44l159 5v60q0 102 51 158t152 56q81 0 150 -32z" />
    <glyph glyph-name="Identity.59062" unicode="&#xff47;" 
d="M247 -101q0 31 24 64.5t66 59.5v5q-55 26 -55 85q0 55 66 101v4q-64 55 -64 138q0 82 61.5 136t148.5 54q47 0 79 -13h218v-47h-154q64 -52 64 -131q0 -82 -59.5 -134.5t-147.5 -52.5q-59 0 -108 26q-51 -34 -51 -72q0 -72 120 -72h140q103 0 149 -28.5t46 -92.5
q0 -74 -79 -128t-206 -54q-125 0 -191.5 40.5t-66.5 111.5zM494 212q64 0 107.5 40.5t43.5 103.5q0 62 -44 103t-107 41q-64 0 -108 -41t-44 -103q0 -63 44 -103.5t108 -40.5zM301 -100q0 -49 52.5 -79t151.5 -30q101 0 164 39.5t63 91.5q0 41 -33 58.5t-102 17.5h-132
q-50 0 -82 9q-82 -44 -82 -107z" />
    <glyph glyph-name="Identity.59063" unicode="&#xff48;" 
d="M277 0v795h59v-224l-2 -120q108 96 216 96q90 0 137.5 -51.5t47.5 -154.5v-341h-59v333q0 162 -143 162q-51 0 -95.5 -22.5t-101.5 -73.5v-399h-59z" />
    <glyph glyph-name="Identity.59064" unicode="&#xff49;" 
d="M538 0v484h-261v49h319v-533h-58zM555 658q-24 0 -39.5 15.5t-15.5 39.5q0 25 15.5 40.5t39.5 15.5t39.5 -15.5t15.5 -40.5q0 -24 -15.5 -39.5t-39.5 -15.5z" />
    <glyph glyph-name="Identity.59065" unicode="&#xff4a;" 
d="M274 484v49h321v-569q0 -104 -48.5 -159.5t-164.5 -55.5q-77 0 -146 36l21 46q61 -32 129 -32q84 0 117.5 40.5t33.5 118.5v526h-263zM555 658q-24 0 -39.5 15.5t-15.5 39.5q0 25 15.5 40.5t39.5 15.5t40 -15.5t16 -40.5q0 -24 -16 -39.5t-40 -15.5z" />
    <glyph glyph-name="Identity.59066" unicode="&#xff4b;" 
d="M310 0v795h58v-576h3l304 315h68l-203 -212l236 -322h-65l-206 282l-137 -138v-144h-58z" />
    <glyph glyph-name="Identity.59067" unicode="&#xff4c;" 
d="M268 744v51h252v-637q0 -120 113 -120q47 0 109 26l17 -44q-85 -32 -135 -32q-162 0 -162 178v578h-194z" />
    <glyph glyph-name="Identity.59068" unicode="&#xff4d;" 
d="M93 0v534h49l6 -82h3q100 95 199 95q128 0 169 -108q116 108 213 108q182 0 182 -206v-341h-59v333q0 82 -33.5 122t-104.5 40q-83 0 -185 -96v-399h-59v333q0 162 -138 162q-85 0 -183 -96v-399h-59z" />
    <glyph glyph-name="Identity.59069" unicode="&#xff4e;" 
d="M275 0v534h48l8 -82h2q111 95 216 95q185 0 185 -206v-341h-60v333q0 83 -34.5 122.5t-107.5 39.5q-52 0 -96 -22.5t-102 -73.5v-399h-59z" />
    <glyph glyph-name="Identity.59070" unicode="&#xff4f;" 
d="M500 -12q-117 0 -198 75.5t-81 202.5q0 129 81 204t198 75t198 -75t81 -204q0 -127 -81 -202.5t-198 -75.5zM500 38q94 0 154 63.5t60 164.5t-60 165t-154 64t-154 -64t-60 -165t60 -164.5t154 -63.5z" />
    <glyph glyph-name="Identity.59071" unicode="&#xff50;" 
d="M264 -237v771h49l7 -66h3q114 79 210 79q119 0 181.5 -72.5t62.5 -199.5q0 -132 -78 -210t-190 -78q-91 0 -187 65l1 -66v-223h-59zM323 412v-308q91 -66 181 -66q93 0 152.5 65.5t59.5 170.5q0 103 -47 162.5t-148 59.5q-84 0 -198 -84z" />
    <glyph glyph-name="Identity.59072" unicode="&#xff51;" 
d="M674 -237l2 202l4 104q-98 -82 -206 -82q-114 0 -183 73t-69 206q0 125 79.5 203t190.5 78q94 0 185 -64h4l7 51h47v-771h-61zM283 266q0 -105 54 -166.5t148 -61.5q95 0 191 84v308q-85 66 -179 66q-90 0 -152 -66t-62 -164z" />
    <glyph glyph-name="Identity.59073" unicode="&#xff52;" 
d="M344 0v533h50l5 -130h3q43 66 107 104t140 38q61 0 110 -22l-17 -51q-50 20 -100 20q-140 0 -240 -164v-328h-58z" />
    <glyph glyph-name="Identity.59074" unicode="&#xff53;" 
d="M257 71l31 41q94 -76 234 -76q77 0 118.5 28.5t41.5 70.5q0 38 -40 65.5t-147 53.5q-208 50 -208 149q0 61 54.5 101.5t157.5 40.5q55 0 111.5 -18t95.5 -47l-30 -40q-78 58 -179 58q-79 0 -114 -26t-35 -66q0 -64 175 -107q121 -30 170 -65.5t49 -94.5q0 -64 -60 -107.5
t-163 -43.5q-148 0 -262 83z" />
    <glyph glyph-name="Identity.59075" unicode="&#xff54;" 
d="M412 202v282h-159v44l161 5l7 154h49v-154h279v-49h-279v-286q0 -81 32 -121t114 -40q68 0 139 26l15 -43q-81 -32 -163 -32q-106 0 -150.5 55.5t-44.5 158.5z" />
    <glyph glyph-name="Identity.59076" unicode="&#xff55;" 
d="M666 89q-100 -102 -214 -102q-184 0 -184 206v341h59v-334q0 -83 34.5 -122t106.5 -39q52 0 97.5 25t99.5 80v390h58v-534h-49l-5 89h-3z" />
    <glyph glyph-name="Identity.59077" unicode="&#xff56;" 
d="M467 0l-230 534h62l138 -328q10 -24 30.5 -76.5t31.5 -77.5h5q31 71 62 154l138 328h59l-227 -534h-69z" />
    <glyph glyph-name="Identity.59078" unicode="&#xff57;" 
d="M272 0l-183 534h62l112 -338q7 -27 21.5 -74.5t20.5 -69.5h5q28 84 46 144l113 338h65l114 -338q12 -36 46 -144h4q7 24 23 72t23 72l109 338h57l-177 -534h-75l-108 321q-9 28 -25 79t-23 74h-5q-34 -104 -51 -155l-105 -319h-69z" />
    <glyph glyph-name="Identity.59079" unicode="&#xff58;" 
d="M255 0l209 279l-191 255h65l98 -132q11 -15 33.5 -44.5t32.5 -43.5h5q6 9 62 89l95 131h63l-192 -260l210 -274h-66l-108 141q-21 30 -74 98h-5q-56 -78 -70 -98l-103 -141h-64z" />
    <glyph glyph-name="Identity.59080" unicode="&#xff59;" 
d="M525 -62q-71 -178 -210 -178q-36 0 -65 12l14 49q22 -9 51 -9q99 0 155 135l17 46l-252 541h63l147 -327q4 -9 29 -65.5t39 -84.5h5q10 26 30 78.5t28 71.5l130 327h59z" />
    <glyph glyph-name="Identity.59081" unicode="&#xff5a;" 
d="M251 0v32l402 452h-360v49h443v-32l-401 -452h413v-49h-497z" />
  </font>
</defs>
</svg>
